<?xml version="1.0" encoding="UTF-8"?>
<svg version="1.1" xmlns="http://www.w3.org/2000/svg" width="16" height="16">
<path d="M0 0 C5.28 0 10.56 0 16 0 C16 5.28 16 10.56 16 16 C10.72 16 5.44 16 0 16 C0 10.72 0 5.44 0 0 Z " fill="#4E81AB" transform="translate(0,0)"/>
<path d="M0 0 C5.28 0 10.56 0 16 0 C16 1.98 16 3.96 16 6 C15.484375 5.34 14.96875 4.68 14.4375 4 C12.05912084 1.68459896 12.05912084 1.68459896 8.4375 1.5625 C5.13560197 1.77669981 5.13560197 1.77669981 3 3.0625 C1.38352178 6.19442656 2.21334704 8.67185286 3 12 C4.86712029 14.27208703 4.86712029 14.27208703 7.8125 14.375 C11.66305455 13.92199358 13.21801758 12.6183364 16 10 C16 11.98 16 13.96 16 16 C10.72 16 5.44 16 0 16 C0 10.72 0 5.44 0 0 Z " fill="#F1F6F6" transform="translate(0,0)"/>
<path d="M0 0 C0.99 0.66 1.98 1.32 3 2 C3.3125 5 3.3125 5 3 8 C2.34 8.66 1.68 9.32 1 10 C0.01 9.67 -0.98 9.34 -2 9 C-1.67 8.34 -1.34 7.68 -1 7 C-2.32 7 -3.64 7 -5 7 C-4.67 5.35 -4.34 3.7 -4 2 C-2.68 2 -1.36 2 0 2 C0 1.34 0 0.68 0 0 Z " fill="#3C79AE" transform="translate(11,4)"/>
<path d="M0 0 C0.78375 0.04125 1.5675 0.0825 2.375 0.125 C2.375 0.785 2.375 1.445 2.375 2.125 C1.055 2.455 -0.265 2.785 -1.625 3.125 C-1.955 4.445 -2.285 5.765 -2.625 7.125 C-1.305 7.125 0.015 7.125 1.375 7.125 C1.375 7.785 1.375 8.445 1.375 9.125 C-0.29111905 9.167721 -1.95882885 9.16563832 -3.625 9.125 C-4.625 8.125 -4.625 8.125 -4.8125 5.1875 C-4.57390036 1.29037256 -3.98646018 0.18983144 0 0 Z " fill="#DEEDF5" transform="translate(8.625,3.875)"/>
<path d="M0 0 C3.25 -0.3125 3.25 -0.3125 7 0 C9.5 2.1875 9.5 2.1875 11 5 C10.75 7.8125 10.75 7.8125 10 10 C9.67 10 9.34 10 9 10 C8.814375 9.071875 8.62875 8.14375 8.4375 7.1875 C6.89272441 3.76212803 6.61378762 3.4794021 3.375 2.125 C2.26125 1.75375 1.1475 1.3825 0 1 C0 0.67 0 0.34 0 0 Z " fill="#C5A2B0" transform="translate(5,1)"/>
<path d="M0 0 C0.99 0.66 1.98 1.32 3 2 C3.3125 5 3.3125 5 3 8 C2.34 8.66 1.68 9.32 1 10 C0.01 9.67 -0.98 9.34 -2 9 C-1.34 8.34 -0.68 7.68 0 7 C0.16677282 3.41656024 0.16677282 3.41656024 0 0 Z " fill="#3D73A1" transform="translate(11,4)"/>
<path d="M0 0 C3.3 0 6.6 0 10 0 C10 0.33 10 0.66 10 1 C9.05125 1.309375 8.1025 1.61875 7.125 1.9375 C4.13919592 2.87394742 4.13919592 2.87394742 2 4 C1.34 2.68 0.68 1.36 0 0 Z " fill="#EFECEB" transform="translate(0,0)"/>
</svg>
